<svg width="60" height="60" viewBox="0 0 60 60" fill="none" xmlns="http://www.w3.org/2000/svg">
<g clip-path="url(#clip0_22:53)">
<path d="M29.6753 0C13.1019 0 -0.333252 13.4352 -0.333252 30.0086C-0.333252 46.582 13.1019 60.0171 29.6753 60.0171C46.2487 60.0171 59.6839 46.582 59.6839 30.0086C59.6839 13.4352 46.2487 0 29.6753 0ZM37.6116 41.9987C37.6116 41.9987 36.584 40.771 35.7277 39.6867C39.4675 38.6304 40.8945 36.2897 40.8945 36.2897C39.7242 37.0606 38.6106 37.6027 37.6116 37.9742C36.1845 38.5737 34.8141 38.9731 33.4724 39.2019C30.7316 39.716 28.2196 39.5733 26.079 39.1732C24.4518 38.8591 23.0528 38.4023 21.8824 37.9455C21.2256 37.6888 20.512 37.3747 19.7985 36.9752C19.7131 36.9179 19.6271 36.8899 19.5418 36.8325C19.4844 36.8038 19.4564 36.7752 19.4277 36.7472C18.9136 36.4617 18.6282 36.2617 18.6282 36.2617C18.6282 36.2617 19.9986 38.5457 23.6236 39.63C22.7674 40.715 21.7111 41.9993 21.7111 41.9993C15.4019 41.7986 13.0039 37.6594 13.0039 37.6594C13.0039 28.4675 17.1144 21.0167 17.1144 21.0167C21.2249 17.9338 25.136 18.0191 25.136 18.0191L25.4214 18.3619C20.2826 19.8463 17.9133 22.1016 17.9133 22.1016C17.9133 22.1016 18.5415 21.7589 19.5978 21.2741C22.6527 19.9324 25.0787 19.5616 26.0776 19.4756C26.249 19.4469 26.3917 19.4182 26.5631 19.4182C28.3043 19.1901 30.2742 19.1328 32.3294 19.3609C35.0415 19.675 37.953 20.4739 40.9219 22.1016C40.9219 22.1016 38.6666 19.9604 33.8138 18.4759L34.2133 18.0191C34.2133 18.0191 38.1244 17.9338 42.2349 21.0167C42.2349 21.0167 46.3454 28.4675 46.3454 37.6594C46.3468 37.6594 43.9201 41.7986 37.6116 41.9987Z" fill="#1561FB"/>
<path d="M24.337 28.667C22.7099 28.667 21.4255 30.0941 21.4255 31.8359C21.4255 33.5771 22.7386 35.0048 24.337 35.0048C25.9642 35.0048 27.2485 33.5777 27.2485 31.8359C27.2772 30.0947 25.9642 28.667 24.337 28.667ZM34.7567 28.667C33.1296 28.667 31.8452 30.0941 31.8452 31.8359C31.8452 33.5771 33.1582 35.0048 34.7567 35.0048C36.3838 35.0048 37.6682 33.5777 37.6682 31.8359C37.6682 30.0947 36.3838 28.667 34.7567 28.667Z" fill="#1561FB"/>
</g>
<defs>
<clipPath id="clip0_22:53">
<rect width="60" height="60" fill="white"/>
</clipPath>
</defs>
</svg>
