<svg width="60" height="60" viewBox="0 0 60 60" fill="none" xmlns="http://www.w3.org/2000/svg">
<g clip-path="url(#clip0_22:45)">
<path d="M29.6753 0C13.1019 0 -0.333252 13.4352 -0.333252 30.0086C-0.333252 46.582 13.1019 60.0171 29.6753 60.0171C46.2487 60.0171 59.6839 46.582 59.6839 30.0086C59.6839 13.4352 46.2487 0 29.6753 0ZM46.3468 17.3336L43.6847 19.8857C43.4553 20.0604 43.3412 20.3478 43.3886 20.6326V39.3846C43.3412 39.6693 43.4546 39.9567 43.6847 40.1315L46.2841 42.6835V43.2437H33.209V42.6835L35.9018 40.0694C36.1665 39.8047 36.1665 39.7273 36.1665 39.3226V24.1649L28.679 43.1817H27.6674L18.9503 24.1649V36.9105C18.8776 37.4467 19.0556 37.9855 19.4331 38.3736L22.9354 42.6222V43.1823H13.0039V42.6222L16.5062 38.3736C16.881 37.9855 17.0484 37.4427 16.9577 36.9105V22.173C16.999 21.7636 16.843 21.3594 16.5376 21.084L13.424 17.3336V16.7735H23.0908L30.5623 33.1601L37.1315 16.7735H46.3468V17.3336Z" fill="#1561FB"/>
</g>
<defs>
<clipPath id="clip0_22:45">
<rect width="60" height="60" fill="white"/>
</clipPath>
</defs>
</svg>
