<svg width="80" height="79" viewBox="0 0 80 79" fill="none" xmlns="http://www.w3.org/2000/svg">
<path d="M68.4658 8.80261L43.7938 27.1268L48.3563 16.3158L68.4658 8.80261Z" fill="#E2761B" stroke="#E2761B" stroke-linecap="round" stroke-linejoin="round"/>
<path d="M11.5094 8.80261L35.983 27.3004L31.6437 16.3158L11.5094 8.80261Z" fill="#E4761B" stroke="#E4761B" stroke-linecap="round" stroke-linejoin="round"/>
<path d="M59.5888 51.2781L53.0179 61.3452L67.0772 65.2134L71.119 51.5012L59.5888 51.2781Z" fill="#E4761B" stroke="#E4761B" stroke-linecap="round" stroke-linejoin="round"/>
<path d="M8.90583 51.5012L12.9228 65.2134L26.9821 61.3452L20.4112 51.2781L8.90583 51.5012Z" fill="#E4761B" stroke="#E4761B" stroke-linecap="round" stroke-linejoin="round"/>
<path d="M26.1887 34.2681L22.2709 40.1943L36.231 40.8142L35.7351 25.8126L26.1887 34.2681Z" fill="#E4761B" stroke="#E4761B" stroke-linecap="round" stroke-linejoin="round"/>
<path d="M53.7865 34.268L44.1161 25.639L43.7938 40.8142L57.7291 40.1943L53.7865 34.268Z" fill="#E4761B" stroke="#E4761B" stroke-linecap="round" stroke-linejoin="round"/>
<path d="M26.9821 61.3453L35.3631 57.2539L28.1227 51.6005L26.9821 61.3453Z" fill="#E4761B" stroke="#E4761B" stroke-linecap="round" stroke-linejoin="round"/>
<path d="M44.6121 57.2539L53.0179 61.3453L51.8525 51.6005L44.6121 57.2539Z" fill="#E4761B" stroke="#E4761B" stroke-linecap="round" stroke-linejoin="round"/>
<path d="M53.0179 61.3452L44.6121 57.2539L45.2816 62.7338L45.2072 65.0398L53.0179 61.3452Z" fill="#D7C1B3" stroke="#D7C1B3" stroke-linecap="round" stroke-linejoin="round"/>
<path d="M26.9821 61.3452L34.7928 65.0398L34.7432 62.7338L35.3631 57.2539L26.9821 61.3452Z" fill="#D7C1B3" stroke="#D7C1B3" stroke-linecap="round" stroke-linejoin="round"/>
<path d="M34.9168 47.9803L27.9244 45.9222L32.8588 43.6658L34.9168 47.9803Z" fill="#233447" stroke="#233447" stroke-linecap="round" stroke-linejoin="round"/>
<path d="M45.0584 47.9803L47.1165 43.6658L52.0757 45.9222L45.0584 47.9803Z" fill="#233447" stroke="#233447" stroke-linecap="round" stroke-linejoin="round"/>
<path d="M26.9821 61.3452L28.1723 51.2781L20.4111 51.5012L26.9821 61.3452Z" fill="#CD6116" stroke="#CD6116" stroke-linecap="round" stroke-linejoin="round"/>
<path d="M51.8277 51.2781L53.0179 61.3452L59.5888 51.5012L51.8277 51.2781Z" fill="#CD6116" stroke="#CD6116" stroke-linecap="round" stroke-linejoin="round"/>
<path d="M57.729 40.1943L43.7937 40.8142L45.0831 47.9803L47.1412 43.6658L52.1004 45.9222L57.729 40.1943Z" fill="#CD6116" stroke="#CD6116" stroke-linecap="round" stroke-linejoin="round"/>
<path d="M27.9243 45.9222L32.8835 43.6658L34.9168 47.9803L36.231 40.8142L22.2708 40.1943L27.9243 45.9222Z" fill="#CD6116" stroke="#CD6116" stroke-linecap="round" stroke-linejoin="round"/>
<path d="M22.2709 40.1943L28.1227 51.6005L27.9243 45.9222L22.2709 40.1943Z" fill="#E4751F" stroke="#E4751F" stroke-linecap="round" stroke-linejoin="round"/>
<path d="M52.1004 45.9222L51.8525 51.6005L57.7291 40.1943L52.1004 45.9222Z" fill="#E4751F" stroke="#E4751F" stroke-linecap="round" stroke-linejoin="round"/>
<path d="M36.231 40.8142L34.9168 47.9802L36.5533 56.4357L36.9253 45.3023L36.231 40.8142Z" fill="#E4751F" stroke="#E4751F" stroke-linecap="round" stroke-linejoin="round"/>
<path d="M43.7938 40.8142L43.1243 45.2775L43.4218 56.4357L45.0832 47.9802L43.7938 40.8142Z" fill="#E4751F" stroke="#E4751F" stroke-linecap="round" stroke-linejoin="round"/>
<path d="M45.0832 47.9802L43.4219 56.4356L44.6121 57.2539L51.8525 51.6004L52.1005 45.9221L45.0832 47.9802Z" fill="#F6851B" stroke="#F6851B" stroke-linecap="round" stroke-linejoin="round"/>
<path d="M27.9244 45.9221L28.1227 51.6004L35.3632 57.2539L36.5534 56.4356L34.9168 47.9802L27.9244 45.9221Z" fill="#F6851B" stroke="#F6851B" stroke-linecap="round" stroke-linejoin="round"/>
<path d="M45.2071 65.0398L45.2815 62.7338L44.6616 62.1883H35.3135L34.7432 62.7338L34.7928 65.0398L26.9821 61.3452L29.7096 63.5769L35.2391 67.4202H44.736L50.2903 63.5769L53.0178 61.3452L45.2071 65.0398Z" fill="#C0AD9E" stroke="#C0AD9E" stroke-linecap="round" stroke-linejoin="round"/>
<path d="M44.6121 57.2539L43.4219 56.4357H36.5534L35.3632 57.2539L34.7433 62.7338L35.3136 62.1883H44.6617L45.2816 62.7338L44.6121 57.2539Z" fill="#161616" stroke="#161616" stroke-linecap="round" stroke-linejoin="round"/>
<path d="M69.5072 28.3171L71.6149 18.2003L68.4658 8.80261L44.6121 26.5069L53.7866 34.2681L66.7549 38.0619L69.6312 34.7144L68.3914 33.8218L70.3751 32.0117L68.8377 30.8214L70.8214 29.3089L69.5072 28.3171Z" fill="#763D16" stroke="#763D16" stroke-linecap="round" stroke-linejoin="round"/>
<path d="M8.38511 18.2003L10.4928 28.3171L9.15378 29.3089L11.1375 30.8214L9.62491 32.0117L11.6086 33.8218L10.3688 34.7144L13.2203 38.0619L26.1886 34.2681L35.3631 26.5069L11.5094 8.80261L8.38511 18.2003Z" fill="#763D16" stroke="#763D16" stroke-linecap="round" stroke-linejoin="round"/>
<path d="M66.7549 38.0619L53.7866 34.2681L57.7292 40.1943L51.8525 51.6005L59.5889 51.5013H71.119L66.7549 38.0619Z" fill="#F6851B" stroke="#F6851B" stroke-linecap="round" stroke-linejoin="round"/>
<path d="M26.1886 34.2681L13.2203 38.0619L8.90583 51.5013H20.4112L28.1227 51.6005L22.2709 40.1943L26.1886 34.2681Z" fill="#F6851B" stroke="#F6851B" stroke-linecap="round" stroke-linejoin="round"/>
<path d="M43.7938 40.8142L44.612 26.5069L48.381 16.3158H31.6437L35.3631 26.5069L36.231 40.8142L36.5285 45.3271L36.5533 56.4357H43.4218L43.4714 45.3271L43.7938 40.8142Z" fill="#F6851B" stroke="#F6851B" stroke-linecap="round" stroke-linejoin="round"/>
</svg>
