<svg width="60" height="60" viewBox="0 0 60 60" fill="none" xmlns="http://www.w3.org/2000/svg">
<g clip-path="url(#clip0_22:48)">
<path d="M29.6753 0C13.1019 0 -0.333252 13.4352 -0.333252 30.0086C-0.333252 46.582 13.1019 60.0171 29.6753 60.0171C46.2487 60.0171 59.6839 46.582 59.6839 30.0086C59.6839 13.4352 46.2487 0 29.6753 0ZM38.3251 18.8747H35.2069C32.7442 18.8747 32.2654 20.0451 32.2654 21.7616V25.5473H38.1564L37.3709 31.493H32.2654V46.68H26.131V31.493H21.0255V25.5473H26.131V21.1727C26.131 16.0866 29.2299 13.3378 33.7538 13.3378C35.2809 13.3311 36.8067 13.4098 38.3251 13.5732V18.8747V18.8747Z" fill="#1561FB"/>
</g>
<defs>
<clipPath id="clip0_22:48">
<rect width="60" height="60" fill="white"/>
</clipPath>
</defs>
</svg>
